<?xml version="1.0" encoding="utf-8"?>
<!-- Generator: Adobe Illustrator 25.4.1, SVG Export Plug-In . SVG Version: 6.00 Build 0)  -->
<svg version="1.1" id="Layer_2_00000060030995363707980060000009454297275084348342_"
	 xmlns="http://www.w3.org/2000/svg" xmlns:xlink="http://www.w3.org/1999/xlink" x="0px" y="0px" viewBox="0 0 504 504"
	 style="enable-background:new 0 0 504 504;" xml:space="preserve">
<style type="text/css">
	.st0{fill:#FFFFFF;}
</style>
<path class="st0" d="M504,252.5L504,252.5c0,12.7-10.3,23-23,23H23.6c-12.7,0-23-10.3-23-23v0c0-12.7,10.3-23,23-23H481
	C493.7,229.5,504,239.8,504,252.5z"/>
<path class="st0" d="M504,436L504,436c0,12.7-10.3,23-23,23H23.6c-12.7,0-23-10.3-23-23l0,0c0-12.7,10.3-23,23-23H481
	C493.7,413,504,423.3,504,436z"/>
<path class="st0" d="M504,69L504,69c0,12.7-10.3,23-23,23H23.6c-12.7,0-23-10.3-23-23v0c0-12.7,10.3-23,23-23H481
	C493.7,46,504,56.3,504,69z"/>
</svg>
